<svg width="32" height="32" viewBox="0 0 32 32" fill="none" xmlns="http://www.w3.org/2000/svg">
<path opacity="0.2" d="M30.0005 7.58268C28.9119 9.14125 27.5536 10.4929 25.9898 11.5739L25.9897 11.5739C25.8908 14.3077 25.0928 16.9706 23.6719 19.3083C22.2509 21.6459 20.2545 23.5804 17.8732 24.9269C15.4919 26.2735 12.8053 26.9872 10.0696 27C7.33402 27.0127 4.6408 26.324 2.24707 24.9997L2.24788 24.9982C5.37369 24.9549 8.41759 23.9924 11 22.2307L10.9999 22.2308C8.23553 20.3467 6.1301 17.6447 4.97878 14.5037C3.82746 11.3627 3.68798 7.94011 4.5799 4.71582L4.57985 4.71585C5.85731 6.68317 7.55176 8.34551 9.54316 9.5851C11.5346 10.8247 13.7742 11.6112 16.1034 11.8889L16.103 11.889C15.8577 10.7197 16.0391 9.50132 16.6144 8.45423C17.1896 7.40714 18.1207 6.60056 19.239 6.18046C20.3574 5.76037 21.5893 5.75452 22.7116 6.16397C23.834 6.57341 24.7726 7.37111 25.3578 8.41269L25.3578 8.41324C26.9378 8.36609 28.5022 8.08623 30.0005 7.58268Z" fill="#2B95FF"/>
<path d="M30.0005 7.58268C28.9119 9.14125 27.5536 10.4929 25.9898 11.5739L25.9897 11.5739C25.8908 14.3077 25.0928 16.9706 23.6719 19.3083C22.2509 21.6459 20.2545 23.5804 17.8732 24.9269C15.4919 26.2735 12.8053 26.9872 10.0696 27C7.33402 27.0127 4.6408 26.324 2.24707 24.9997L2.24788 24.9982C5.37369 24.9549 8.41759 23.9924 11 22.2307L10.9999 22.2308C8.23553 20.3467 6.1301 17.6447 4.97878 14.5037C3.82746 11.3627 3.68798 7.94011 4.5799 4.71582L4.57985 4.71585C5.85731 6.68317 7.55176 8.34551 9.54316 9.5851C11.5346 10.8247 13.7742 11.6112 16.1034 11.8889L16.103 11.889C15.8577 10.7197 16.0391 9.50132 16.6144 8.45423C17.1896 7.40714 18.1207 6.60056 19.239 6.18046C20.3574 5.76037 21.5893 5.75452 22.7116 6.16397C23.834 6.57341 24.7726 7.37111 25.3578 8.41269L25.3578 8.41324C26.9378 8.36609 28.5022 8.08623 30.0005 7.58268" stroke="#2B95FF" stroke-width="2" stroke-linecap="round" stroke-linejoin="round"/>
</svg>
